<mxfile host="app.diagrams.net" modified="2021-01-27T01:31:30.180Z" agent="5.0 (Windows NT 10.0; Win64; x64) AppleWebKit/537.36 (KHTML, like Gecko) Chrome/87.0.4280.141 Safari/537.36" etag="7vyydPvAUG1SCz2qDoyc" version="14.2.7" type="github">
  <diagram id="L98dQlYl5lH8bjT9c6Ct" name="Page-1">
    <mxGraphModel dx="813" dy="409" grid="1" gridSize="10" guides="1" tooltips="1" connect="1" arrows="1" fold="1" page="1" pageScale="1" pageWidth="850" pageHeight="1100" math="0" shadow="0">
      <root>
        <mxCell id="0" />
        <mxCell id="1" parent="0" />
        <mxCell id="fwrkS9oU2BavGtE8gAVk-1" value="" style="whiteSpace=wrap;html=1;aspect=fixed;" vertex="1" parent="1">
          <mxGeometry x="240" y="160" width="320" height="320" as="geometry" />
        </mxCell>
        <mxCell id="fwrkS9oU2BavGtE8gAVk-2" value="" style="endArrow=none;html=1;entryX=0.25;entryY=0;entryDx=0;entryDy=0;exitX=0.25;exitY=1;exitDx=0;exitDy=0;" edge="1" parent="1" source="fwrkS9oU2BavGtE8gAVk-1" target="fwrkS9oU2BavGtE8gAVk-1">
          <mxGeometry width="50" height="50" relative="1" as="geometry">
            <mxPoint x="410" y="390" as="sourcePoint" />
            <mxPoint x="460" y="340" as="targetPoint" />
          </mxGeometry>
        </mxCell>
        <mxCell id="fwrkS9oU2BavGtE8gAVk-3" value="" style="endArrow=none;html=1;entryX=0.25;entryY=0;entryDx=0;entryDy=0;exitX=0.25;exitY=1;exitDx=0;exitDy=0;" edge="1" parent="1">
          <mxGeometry width="50" height="50" relative="1" as="geometry">
            <mxPoint x="399.5" y="480" as="sourcePoint" />
            <mxPoint x="399.5" y="160" as="targetPoint" />
          </mxGeometry>
        </mxCell>
        <mxCell id="fwrkS9oU2BavGtE8gAVk-4" value="" style="endArrow=none;html=1;entryX=0.25;entryY=0;entryDx=0;entryDy=0;exitX=0.25;exitY=1;exitDx=0;exitDy=0;" edge="1" parent="1">
          <mxGeometry width="50" height="50" relative="1" as="geometry">
            <mxPoint x="480" y="480" as="sourcePoint" />
            <mxPoint x="480" y="160" as="targetPoint" />
          </mxGeometry>
        </mxCell>
        <mxCell id="fwrkS9oU2BavGtE8gAVk-5" value="" style="endArrow=none;html=1;exitX=0;exitY=0.25;exitDx=0;exitDy=0;entryX=1;entryY=0.25;entryDx=0;entryDy=0;" edge="1" parent="1" source="fwrkS9oU2BavGtE8gAVk-1" target="fwrkS9oU2BavGtE8gAVk-1">
          <mxGeometry width="50" height="50" relative="1" as="geometry">
            <mxPoint x="410" y="390" as="sourcePoint" />
            <mxPoint x="460" y="340" as="targetPoint" />
          </mxGeometry>
        </mxCell>
        <mxCell id="fwrkS9oU2BavGtE8gAVk-6" value="" style="endArrow=none;html=1;exitX=0;exitY=0.25;exitDx=0;exitDy=0;entryX=1;entryY=0.25;entryDx=0;entryDy=0;" edge="1" parent="1">
          <mxGeometry width="50" height="50" relative="1" as="geometry">
            <mxPoint x="240" y="319.5" as="sourcePoint" />
            <mxPoint x="560" y="319.5" as="targetPoint" />
          </mxGeometry>
        </mxCell>
        <mxCell id="fwrkS9oU2BavGtE8gAVk-7" value="" style="endArrow=none;html=1;exitX=0;exitY=0.25;exitDx=0;exitDy=0;entryX=1;entryY=0.25;entryDx=0;entryDy=0;" edge="1" parent="1">
          <mxGeometry width="50" height="50" relative="1" as="geometry">
            <mxPoint x="240" y="400" as="sourcePoint" />
            <mxPoint x="560" y="400" as="targetPoint" />
          </mxGeometry>
        </mxCell>
        <mxCell id="fwrkS9oU2BavGtE8gAVk-8" value="&lt;font style=&quot;font-size: 26px&quot;&gt;00&lt;/font&gt;" style="text;html=1;strokeColor=none;fillColor=none;align=center;verticalAlign=middle;whiteSpace=wrap;rounded=0;" vertex="1" parent="1">
          <mxGeometry x="240" y="120" width="80" height="40" as="geometry" />
        </mxCell>
        <mxCell id="fwrkS9oU2BavGtE8gAVk-9" value="&lt;font style=&quot;font-size: 26px&quot;&gt;01&lt;/font&gt;" style="text;html=1;strokeColor=none;fillColor=none;align=center;verticalAlign=middle;whiteSpace=wrap;rounded=0;" vertex="1" parent="1">
          <mxGeometry x="320" y="120" width="80" height="40" as="geometry" />
        </mxCell>
        <mxCell id="fwrkS9oU2BavGtE8gAVk-10" value="&lt;font style=&quot;font-size: 26px&quot;&gt;11&lt;/font&gt;" style="text;html=1;strokeColor=none;fillColor=none;align=center;verticalAlign=middle;whiteSpace=wrap;rounded=0;" vertex="1" parent="1">
          <mxGeometry x="400" y="120" width="80" height="40" as="geometry" />
        </mxCell>
        <mxCell id="fwrkS9oU2BavGtE8gAVk-11" value="&lt;font style=&quot;font-size: 26px&quot;&gt;10&lt;/font&gt;" style="text;html=1;strokeColor=none;fillColor=none;align=center;verticalAlign=middle;whiteSpace=wrap;rounded=0;" vertex="1" parent="1">
          <mxGeometry x="480" y="120" width="80" height="40" as="geometry" />
        </mxCell>
        <mxCell id="fwrkS9oU2BavGtE8gAVk-12" value="&lt;font style=&quot;font-size: 26px&quot;&gt;00&lt;/font&gt;" style="text;html=1;strokeColor=none;fillColor=none;align=center;verticalAlign=middle;whiteSpace=wrap;rounded=0;" vertex="1" parent="1">
          <mxGeometry x="160" y="180" width="80" height="40" as="geometry" />
        </mxCell>
        <mxCell id="fwrkS9oU2BavGtE8gAVk-13" value="&lt;font style=&quot;font-size: 26px&quot;&gt;01&lt;/font&gt;" style="text;html=1;strokeColor=none;fillColor=none;align=center;verticalAlign=middle;whiteSpace=wrap;rounded=0;" vertex="1" parent="1">
          <mxGeometry x="160" y="260" width="80" height="40" as="geometry" />
        </mxCell>
        <mxCell id="fwrkS9oU2BavGtE8gAVk-14" value="&lt;font style=&quot;font-size: 26px&quot;&gt;11&lt;/font&gt;" style="text;html=1;strokeColor=none;fillColor=none;align=center;verticalAlign=middle;whiteSpace=wrap;rounded=0;" vertex="1" parent="1">
          <mxGeometry x="160" y="340" width="80" height="40" as="geometry" />
        </mxCell>
        <mxCell id="fwrkS9oU2BavGtE8gAVk-15" value="&lt;font style=&quot;font-size: 26px&quot;&gt;10&lt;/font&gt;" style="text;html=1;strokeColor=none;fillColor=none;align=center;verticalAlign=middle;whiteSpace=wrap;rounded=0;" vertex="1" parent="1">
          <mxGeometry x="160" y="420" width="80" height="40" as="geometry" />
        </mxCell>
        <mxCell id="fwrkS9oU2BavGtE8gAVk-16" value="&lt;font style=&quot;font-size: 26px&quot;&gt;0&lt;/font&gt;" style="text;html=1;strokeColor=none;fillColor=none;align=center;verticalAlign=middle;whiteSpace=wrap;rounded=0;" vertex="1" parent="1">
          <mxGeometry x="240" y="180" width="80" height="40" as="geometry" />
        </mxCell>
        <mxCell id="fwrkS9oU2BavGtE8gAVk-17" value="&lt;font style=&quot;font-size: 26px&quot;&gt;0&lt;/font&gt;" style="text;html=1;strokeColor=none;fillColor=none;align=center;verticalAlign=middle;whiteSpace=wrap;rounded=0;" vertex="1" parent="1">
          <mxGeometry x="320" y="180" width="80" height="40" as="geometry" />
        </mxCell>
        <mxCell id="fwrkS9oU2BavGtE8gAVk-18" value="&lt;font style=&quot;font-size: 26px&quot;&gt;1&lt;/font&gt;" style="text;html=1;strokeColor=none;fillColor=none;align=center;verticalAlign=middle;whiteSpace=wrap;rounded=0;" vertex="1" parent="1">
          <mxGeometry x="400" y="180" width="80" height="40" as="geometry" />
        </mxCell>
        <mxCell id="fwrkS9oU2BavGtE8gAVk-19" value="&lt;font style=&quot;font-size: 26px&quot;&gt;0&lt;/font&gt;" style="text;html=1;strokeColor=none;fillColor=none;align=center;verticalAlign=middle;whiteSpace=wrap;rounded=0;" vertex="1" parent="1">
          <mxGeometry x="480" y="180" width="80" height="40" as="geometry" />
        </mxCell>
        <mxCell id="fwrkS9oU2BavGtE8gAVk-20" value="&lt;font style=&quot;font-size: 26px&quot;&gt;0&lt;/font&gt;" style="text;html=1;strokeColor=none;fillColor=none;align=center;verticalAlign=middle;whiteSpace=wrap;rounded=0;" vertex="1" parent="1">
          <mxGeometry x="240" y="260" width="80" height="40" as="geometry" />
        </mxCell>
        <mxCell id="fwrkS9oU2BavGtE8gAVk-21" value="&lt;font style=&quot;font-size: 26px&quot;&gt;1&lt;/font&gt;" style="text;html=1;strokeColor=none;fillColor=none;align=center;verticalAlign=middle;whiteSpace=wrap;rounded=0;" vertex="1" parent="1">
          <mxGeometry x="320" y="260" width="80" height="40" as="geometry" />
        </mxCell>
        <mxCell id="fwrkS9oU2BavGtE8gAVk-22" value="&lt;font style=&quot;font-size: 26px&quot;&gt;1&lt;/font&gt;" style="text;html=1;strokeColor=none;fillColor=none;align=center;verticalAlign=middle;whiteSpace=wrap;rounded=0;" vertex="1" parent="1">
          <mxGeometry x="400" y="260" width="80" height="40" as="geometry" />
        </mxCell>
        <mxCell id="fwrkS9oU2BavGtE8gAVk-23" value="&lt;font style=&quot;font-size: 26px&quot;&gt;1&lt;/font&gt;" style="text;html=1;strokeColor=none;fillColor=none;align=center;verticalAlign=middle;whiteSpace=wrap;rounded=0;" vertex="1" parent="1">
          <mxGeometry x="480" y="260" width="80" height="40" as="geometry" />
        </mxCell>
        <mxCell id="fwrkS9oU2BavGtE8gAVk-24" value="&lt;font style=&quot;font-size: 26px&quot;&gt;1&lt;/font&gt;" style="text;html=1;strokeColor=none;fillColor=none;align=center;verticalAlign=middle;whiteSpace=wrap;rounded=0;" vertex="1" parent="1">
          <mxGeometry x="240" y="340" width="80" height="40" as="geometry" />
        </mxCell>
        <mxCell id="fwrkS9oU2BavGtE8gAVk-25" value="&lt;font style=&quot;font-size: 26px&quot;&gt;1&lt;/font&gt;" style="text;html=1;strokeColor=none;fillColor=none;align=center;verticalAlign=middle;whiteSpace=wrap;rounded=0;" vertex="1" parent="1">
          <mxGeometry x="320" y="340" width="80" height="40" as="geometry" />
        </mxCell>
        <mxCell id="fwrkS9oU2BavGtE8gAVk-26" value="&lt;font style=&quot;font-size: 26px&quot;&gt;1&lt;/font&gt;" style="text;html=1;strokeColor=none;fillColor=none;align=center;verticalAlign=middle;whiteSpace=wrap;rounded=0;" vertex="1" parent="1">
          <mxGeometry x="400" y="340" width="80" height="40" as="geometry" />
        </mxCell>
        <mxCell id="fwrkS9oU2BavGtE8gAVk-27" value="&lt;font style=&quot;font-size: 26px&quot;&gt;1&lt;/font&gt;" style="text;html=1;strokeColor=none;fillColor=none;align=center;verticalAlign=middle;whiteSpace=wrap;rounded=0;" vertex="1" parent="1">
          <mxGeometry x="480" y="340" width="80" height="40" as="geometry" />
        </mxCell>
        <mxCell id="fwrkS9oU2BavGtE8gAVk-28" value="&lt;font style=&quot;font-size: 26px&quot;&gt;0&lt;/font&gt;" style="text;html=1;strokeColor=none;fillColor=none;align=center;verticalAlign=middle;whiteSpace=wrap;rounded=0;" vertex="1" parent="1">
          <mxGeometry x="240" y="420" width="80" height="40" as="geometry" />
        </mxCell>
        <mxCell id="fwrkS9oU2BavGtE8gAVk-29" value="&lt;font style=&quot;font-size: 26px&quot;&gt;1&lt;/font&gt;" style="text;html=1;strokeColor=none;fillColor=none;align=center;verticalAlign=middle;whiteSpace=wrap;rounded=0;" vertex="1" parent="1">
          <mxGeometry x="320" y="420" width="80" height="40" as="geometry" />
        </mxCell>
        <mxCell id="fwrkS9oU2BavGtE8gAVk-30" value="&lt;font style=&quot;font-size: 26px&quot;&gt;1&lt;/font&gt;" style="text;html=1;strokeColor=none;fillColor=none;align=center;verticalAlign=middle;whiteSpace=wrap;rounded=0;" vertex="1" parent="1">
          <mxGeometry x="400" y="420" width="80" height="40" as="geometry" />
        </mxCell>
        <mxCell id="fwrkS9oU2BavGtE8gAVk-31" value="&lt;font style=&quot;font-size: 26px&quot;&gt;1&lt;/font&gt;" style="text;html=1;strokeColor=none;fillColor=none;align=center;verticalAlign=middle;whiteSpace=wrap;rounded=0;" vertex="1" parent="1">
          <mxGeometry x="480" y="420" width="80" height="40" as="geometry" />
        </mxCell>
        <mxCell id="fwrkS9oU2BavGtE8gAVk-32" value="" style="endArrow=none;html=1;entryX=0;entryY=1;entryDx=0;entryDy=0;" edge="1" parent="1" target="fwrkS9oU2BavGtE8gAVk-8">
          <mxGeometry width="50" height="50" relative="1" as="geometry">
            <mxPoint x="200" y="120" as="sourcePoint" />
            <mxPoint x="400" y="230" as="targetPoint" />
          </mxGeometry>
        </mxCell>
        <mxCell id="fwrkS9oU2BavGtE8gAVk-33" value="&lt;font style=&quot;font-size: 14px&quot;&gt;X&lt;sub&gt;1&lt;/sub&gt;X&lt;sub&gt;2&lt;/sub&gt;&lt;/font&gt;" style="text;html=1;strokeColor=none;fillColor=none;align=center;verticalAlign=middle;whiteSpace=wrap;rounded=0;rotation=45;" vertex="1" parent="1">
          <mxGeometry x="210" y="120" width="40" height="20" as="geometry" />
        </mxCell>
        <mxCell id="fwrkS9oU2BavGtE8gAVk-34" value="&lt;font style=&quot;font-size: 14px&quot;&gt;X&lt;sub&gt;3&lt;/sub&gt;X&lt;sub&gt;4&lt;/sub&gt;&lt;/font&gt;" style="text;html=1;strokeColor=none;fillColor=none;align=center;verticalAlign=middle;whiteSpace=wrap;rounded=0;rotation=45;" vertex="1" parent="1">
          <mxGeometry x="190" y="140" width="40" height="20" as="geometry" />
        </mxCell>
        <mxCell id="fwrkS9oU2BavGtE8gAVk-35" value="" style="rounded=1;whiteSpace=wrap;html=1;strokeColor=#d6b656;fillColor=none;strokeWidth=5;" vertex="1" parent="1">
          <mxGeometry x="260" y="170" width="120" height="60" as="geometry" />
        </mxCell>
        <mxCell id="fwrkS9oU2BavGtE8gAVk-36" value="" style="rounded=1;whiteSpace=wrap;html=1;strokeColor=#d6b656;fillColor=none;strokeWidth=5;rotation=90;" vertex="1" parent="1">
          <mxGeometry x="220" y="210" width="120" height="60" as="geometry" />
        </mxCell>
        <mxCell id="fwrkS9oU2BavGtE8gAVk-38" value="" style="endArrow=none;html=1;strokeWidth=3;fillColor=#f8cecc;strokeColor=#b85450;" edge="1" parent="1">
          <mxGeometry width="50" height="50" relative="1" as="geometry">
            <mxPoint x="240" y="180" as="sourcePoint" />
            <mxPoint x="310" y="180" as="targetPoint" />
          </mxGeometry>
        </mxCell>
        <mxCell id="fwrkS9oU2BavGtE8gAVk-39" value="" style="endArrow=none;html=1;strokeWidth=3;fillColor=#f8cecc;strokeColor=#b85450;" edge="1" parent="1">
          <mxGeometry width="50" height="50" relative="1" as="geometry">
            <mxPoint x="310" y="220" as="sourcePoint" />
            <mxPoint x="310" y="180" as="targetPoint" />
          </mxGeometry>
        </mxCell>
        <mxCell id="fwrkS9oU2BavGtE8gAVk-40" value="" style="endArrow=none;html=1;strokeWidth=3;fillColor=#f8cecc;strokeColor=#b85450;" edge="1" parent="1">
          <mxGeometry width="50" height="50" relative="1" as="geometry">
            <mxPoint x="240" y="219.43" as="sourcePoint" />
            <mxPoint x="310" y="219.43" as="targetPoint" />
          </mxGeometry>
        </mxCell>
        <mxCell id="fwrkS9oU2BavGtE8gAVk-41" value="" style="endArrow=none;html=1;strokeWidth=3;fillColor=#f8cecc;strokeColor=#b85450;" edge="1" parent="1">
          <mxGeometry width="50" height="50" relative="1" as="geometry">
            <mxPoint x="490" y="180" as="sourcePoint" />
            <mxPoint x="560" y="180" as="targetPoint" />
          </mxGeometry>
        </mxCell>
        <mxCell id="fwrkS9oU2BavGtE8gAVk-42" value="" style="endArrow=none;html=1;strokeWidth=3;fillColor=#f8cecc;strokeColor=#b85450;" edge="1" parent="1">
          <mxGeometry width="50" height="50" relative="1" as="geometry">
            <mxPoint x="490" y="220" as="sourcePoint" />
            <mxPoint x="490" y="180" as="targetPoint" />
          </mxGeometry>
        </mxCell>
        <mxCell id="fwrkS9oU2BavGtE8gAVk-43" value="" style="endArrow=none;html=1;strokeWidth=3;fillColor=#f8cecc;strokeColor=#b85450;" edge="1" parent="1">
          <mxGeometry width="50" height="50" relative="1" as="geometry">
            <mxPoint x="490" y="219.43000000000006" as="sourcePoint" />
            <mxPoint x="560" y="219.43000000000006" as="targetPoint" />
          </mxGeometry>
        </mxCell>
        <mxCell id="fwrkS9oU2BavGtE8gAVk-44" value="" style="endArrow=none;html=1;strokeWidth=3;fillColor=#dae8fc;strokeColor=#6c8ebf;" edge="1" parent="1">
          <mxGeometry width="50" height="50" relative="1" as="geometry">
            <mxPoint x="259.71" y="219.15" as="sourcePoint" />
            <mxPoint x="259.71" y="159.72" as="targetPoint" />
          </mxGeometry>
        </mxCell>
        <mxCell id="fwrkS9oU2BavGtE8gAVk-45" value="" style="endArrow=none;html=1;strokeWidth=3;fillColor=#dae8fc;strokeColor=#6c8ebf;" edge="1" parent="1">
          <mxGeometry width="50" height="50" relative="1" as="geometry">
            <mxPoint x="299.71" y="219.43" as="sourcePoint" />
            <mxPoint x="259.71" y="219.43" as="targetPoint" />
          </mxGeometry>
        </mxCell>
        <mxCell id="fwrkS9oU2BavGtE8gAVk-47" value="" style="endArrow=none;html=1;strokeWidth=3;fillColor=#dae8fc;strokeColor=#6c8ebf;" edge="1" parent="1">
          <mxGeometry width="50" height="50" relative="1" as="geometry">
            <mxPoint x="299.71" y="219.72000000000006" as="sourcePoint" />
            <mxPoint x="299.71" y="160.29" as="targetPoint" />
          </mxGeometry>
        </mxCell>
        <mxCell id="fwrkS9oU2BavGtE8gAVk-48" value="" style="endArrow=none;html=1;strokeWidth=3;fillColor=#dae8fc;strokeColor=#6c8ebf;" edge="1" parent="1">
          <mxGeometry width="50" height="50" relative="1" as="geometry">
            <mxPoint x="259.71000000000004" y="479.42999999999995" as="sourcePoint" />
            <mxPoint x="259.71000000000004" y="420" as="targetPoint" />
          </mxGeometry>
        </mxCell>
        <mxCell id="fwrkS9oU2BavGtE8gAVk-49" value="" style="endArrow=none;html=1;strokeWidth=3;fillColor=#dae8fc;strokeColor=#6c8ebf;" edge="1" parent="1">
          <mxGeometry width="50" height="50" relative="1" as="geometry">
            <mxPoint x="299.71000000000004" y="420.00000000000006" as="sourcePoint" />
            <mxPoint x="259.71000000000004" y="420.00000000000006" as="targetPoint" />
          </mxGeometry>
        </mxCell>
        <mxCell id="fwrkS9oU2BavGtE8gAVk-50" value="" style="endArrow=none;html=1;strokeWidth=3;fillColor=#dae8fc;strokeColor=#6c8ebf;" edge="1" parent="1">
          <mxGeometry width="50" height="50" relative="1" as="geometry">
            <mxPoint x="299.71000000000004" y="480" as="sourcePoint" />
            <mxPoint x="299.71000000000004" y="420.56999999999994" as="targetPoint" />
          </mxGeometry>
        </mxCell>
      </root>
    </mxGraphModel>
  </diagram>
</mxfile>
